<svg width="366" height="366" viewBox="0 0 366 366" fill="none" xmlns="http://www.w3.org/2000/svg">
<g clip-path="url(#clip0_106_2)">
<circle cx="183" cy="183" r="183" fill="white"/>
<path d="M115.38 187.841C118.46 198.625 123.534 208.445 130.128 216.787C127.528 217.927 124.993 219.007 122.531 220.023C116.546 212.06 111.799 202.96 108.608 193.066C110.773 191.357 113.032 189.613 115.38 187.841Z" fill="#2F4DCB"/>
<path d="M109 99.5C109 105.851 103.851 111 97.5 111C91.1487 111 86 105.851 86 99.5C86 93.1487 91.1487 88 97.5 88C103.851 88 109 93.1487 109 99.5Z" fill="#2F4DCB"/>
<path d="M75.5 184C81.8513 184 87 178.851 87 172.5C87 166.149 81.8513 161 75.5 161C69.1487 161 64 166.149 64 172.5C64 178.851 69.1487 184 75.5 184Z" fill="#2F4DCB"/>
<path d="M180 301.5C180 307.851 174.851 313 168.5 313C162.149 313 157 307.851 157 301.5C157 295.149 162.149 290 168.5 290C174.851 290 180 295.149 180 301.5Z" fill="#2F4DCB"/>
<path d="M259 310.5C259 317.956 252.956 324 245.5 324C238.044 324 232 317.956 232 310.5C232 303.044 238.044 297 245.5 297C252.956 297 259 303.044 259 310.5Z" fill="#2F4DCB"/>
<path d="M45.5 189C51.8513 189 57 183.851 57 177.5C57 171.149 51.8513 166 45.5 166C39.1487 166 34 171.149 34 177.5C34 183.851 39.1487 189 45.5 189Z" fill="#2F4DCB"/>
<path d="M300 252.5C300 258.851 294.851 264 288.5 264C282.149 264 277 258.851 277 252.5C277 246.149 282.149 241 288.5 241C294.851 241 300 246.149 300 252.5Z" fill="#2F4DCB"/>
<path d="M99.5 324C106.404 324 112 318.404 112 311.5C112 304.596 106.404 299 99.5 299C92.5964 299 87 304.596 87 311.5C87 318.404 92.5964 324 99.5 324Z" fill="#2F4DCB"/>
<path d="M259.817 157.768C260.212 157.49 259.424 158.044 259.817 157.768C261.45 183.216 251.854 209.222 232.563 226.23L221.752 226.663L243.252 207.663L221.752 210.163L247.752 190.163L218.752 194.663L259.817 157.768Z" fill="#2F4DCB"/>
<path d="M192.252 205.662L153.252 229.162C167.252 244.162 192.252 249.162 211.252 236.662L196.752 235.162L209.752 222.162L188.752 230.162L206.752 211.662L176.752 222.662L192.252 205.662Z" fill="#2F4DCB"/>
<path fill-rule="evenodd" clip-rule="evenodd" d="M247.096 102.764C232.024 85.0756 210.454 74 186.5 74C140.936 74 104 114.071 104 163.5C104 170.799 104.805 177.893 106.325 184.685C108.666 182.926 111.076 181.262 113.442 179.537C112.496 174.352 112 168.99 112 163.5C112 118.489 145.355 82 186.5 82C220.427 82 249.057 106.809 258.058 140.749C260.423 138.901 262.681 137.089 264.827 135.32C261.957 125.926 257.595 117.074 251.966 109.03C273.623 100.683 288.528 98.03 291.49 103.058C297.365 113.032 254.031 149.448 194.701 184.396C135.371 219.344 82.5118 239.59 76.6371 229.616C72.9686 223.389 88.488 206.85 115.108 186.797C114.543 184.723 114.054 182.629 113.642 180.518C72.4368 210.553 47.6429 236.693 53.4552 246.56C61.788 260.707 129.872 236.049 205.526 191.485C281.179 146.922 335.753 99.3285 327.421 85.1823C321.889 75.7922 290.02 83.4862 247.096 102.764Z" fill="#2F4DCB"/>
<path d="M257.202 141.416C248.429 107.65 220.043 83 186.5 83C145.99 83 113 118.955 113 163.5C113 182.508 119.195 201.451 131.074 216.371C133.273 215.4 135.518 214.385 137.806 213.33C126.811 200.309 120 182.809 120 163.279C120 143.635 126.891 126.044 138 113L138 123.279L160 118.779L136.5 138.779L157.5 139.779L134.5 159.779L161 157.779L138 180.279L166.5 177.779L143.5 197.279H169.808C177.733 193.014 185.897 188.418 194.188 183.534C218.732 169.077 240.52 154.377 257.202 141.416Z" fill="#2F4DCB"/>
<path d="M132.315 230.992C146.81 244.699 165.761 253 186.5 253C232.064 253 269 212.929 269 163.5C269 159.597 268.77 155.753 268.323 151.982C265.903 153.75 263.426 155.53 260.895 157.322C261.045 159.436 261.122 161.573 261.122 163.73C261.122 188.924 251.482 211.095 235.065 226.045C231.081 229.743 226.722 232.998 222.045 235.739C204.627 245.943 184.216 248.16 165.304 241.902C160.763 240.399 156.398 238.438 152.257 236.061C147.96 233.612 143.908 230.719 140.153 227.437C137.501 228.663 134.888 229.849 132.315 230.992Z" fill="#2F4DCB"/>
<path d="M115.38 187.841C118.46 198.625 123.534 208.445 130.128 216.787C127.528 217.927 124.993 219.007 122.531 220.023C116.546 212.06 111.799 202.96 108.608 193.066C110.773 191.357 113.032 189.613 115.38 187.841Z" fill="#2F4DCB"/>
<path d="M109 99.5C109 105.851 103.851 111 97.5 111C91.1487 111 86 105.851 86 99.5C86 93.1487 91.1487 88 97.5 88C103.851 88 109 93.1487 109 99.5Z" fill="#2F4DCB"/>
<path d="M75.5 184C81.8513 184 87 178.851 87 172.5C87 166.149 81.8513 161 75.5 161C69.1487 161 64 166.149 64 172.5C64 178.851 69.1487 184 75.5 184Z" fill="#2F4DCB"/>
<path d="M180 301.5C180 307.851 174.851 313 168.5 313C162.149 313 157 307.851 157 301.5C157 295.149 162.149 290 168.5 290C174.851 290 180 295.149 180 301.5Z" fill="#2F4DCB"/>
<path d="M259 310.5C259 317.956 252.956 324 245.5 324C238.044 324 232 317.956 232 310.5C232 303.044 238.044 297 245.5 297C252.956 297 259 303.044 259 310.5Z" fill="#2F4DCB"/>
<path d="M45.5 189C51.8513 189 57 183.851 57 177.5C57 171.149 51.8513 166 45.5 166C39.1487 166 34 171.149 34 177.5C34 183.851 39.1487 189 45.5 189Z" fill="#2F4DCB"/>
<path d="M300 252.5C300 258.851 294.851 264 288.5 264C282.149 264 277 258.851 277 252.5C277 246.149 282.149 241 288.5 241C294.851 241 300 246.149 300 252.5Z" fill="#2F4DCB"/>
<path d="M99.5 324C106.404 324 112 318.404 112 311.5C112 304.596 106.404 299 99.5 299C92.5964 299 87 304.596 87 311.5C87 318.404 92.5964 324 99.5 324Z" fill="#2F4DCB"/>
<path d="M259.817 157.768C260.212 157.49 259.424 158.044 259.817 157.768C261.45 183.216 251.854 209.222 232.563 226.23L221.752 226.663L243.252 207.663L221.752 210.163L247.752 190.163L218.752 194.663L259.817 157.768Z" fill="#2F4DCB"/>
<path d="M192.252 205.662L153.252 229.162C167.252 244.162 192.252 249.162 211.252 236.662L196.752 235.162L209.752 222.162L188.752 230.162L206.752 211.662L176.752 222.662L192.252 205.662Z" fill="#2F4DCB"/>
<path fill-rule="evenodd" clip-rule="evenodd" d="M247.096 102.764C232.024 85.0756 210.454 74 186.5 74C140.936 74 104 114.071 104 163.5C104 170.799 104.805 177.893 106.325 184.685C108.666 182.926 111.076 181.262 113.442 179.537C112.496 174.352 112 168.99 112 163.5C112 118.489 145.355 82 186.5 82C220.427 82 249.057 106.809 258.058 140.749C260.423 138.901 262.681 137.089 264.827 135.32C261.957 125.926 257.595 117.074 251.966 109.03C273.623 100.683 288.528 98.03 291.49 103.058C297.365 113.032 254.031 149.448 194.701 184.396C135.371 219.344 82.5118 239.59 76.6371 229.616C72.9686 223.389 88.488 206.85 115.108 186.797C114.543 184.723 114.054 182.629 113.642 180.518C72.4368 210.553 47.6429 236.693 53.4552 246.56C61.788 260.707 129.872 236.049 205.526 191.485C281.179 146.922 335.753 99.3285 327.421 85.1823C321.889 75.7922 290.02 83.4862 247.096 102.764Z" fill="#2F4DCB"/>
<path d="M257.202 141.416C248.429 107.65 220.043 83 186.5 83C145.99 83 113 118.955 113 163.5C113 182.508 119.195 201.451 131.074 216.371C133.273 215.4 135.518 214.385 137.806 213.33C126.811 200.309 120 182.809 120 163.279C120 143.635 126.891 126.044 138 113L138 123.279L160 118.779L136.5 138.779L157.5 139.779L134.5 159.779L161 157.779L138 180.279L166.5 177.779L143.5 197.279H169.808C177.733 193.014 185.897 188.418 194.188 183.534C218.732 169.077 240.52 154.377 257.202 141.416Z" fill="#2F4DCB"/>
<path d="M132.315 230.992C146.81 244.699 165.761 253 186.5 253C232.064 253 269 212.929 269 163.5C269 159.597 268.77 155.753 268.323 151.982C265.903 153.75 263.426 155.53 260.895 157.322C261.045 159.436 261.122 161.573 261.122 163.73C261.122 188.924 251.482 211.095 235.065 226.045C231.081 229.743 226.722 232.998 222.045 235.739C204.627 245.943 184.216 248.16 165.304 241.902C160.763 240.399 156.398 238.438 152.257 236.061C147.96 233.612 143.908 230.719 140.153 227.437C137.501 228.663 134.888 229.849 132.315 230.992Z" fill="#2F4DCB"/>
</g>
<defs>
<clipPath id="clip0_106_2">
<rect width="366" height="366" fill="white"/>
</clipPath>
</defs>
</svg>
